<svg width="64" height="64" viewBox="0 0 64 64" fill="none" xmlns="http://www.w3.org/2000/svg">
<path fill-rule="evenodd" clip-rule="evenodd" d="M27.5493 4.30046C16.5096 6.1405 7.67154 14.2277 4.83911 25.0814C3.53679 30.0721 3.76146 36.0552 5.43598 40.9822C8.27449 49.334 14.916 55.896 23.3242 58.6563C26.2904 59.6302 28.7083 59.9992 32.1271 60C39.3804 60.0017 45.9179 57.3837 51.2032 52.361C57.479 46.3973 60.568 38.4032 59.9139 29.8192C58.7971 15.1643 46.4861 3.88247 31.7409 4.00092C30.3576 4.01209 28.4714 4.14687 27.5493 4.30046ZM30.3786 13.3849V19.0697H29.3697C27.7895 19.0697 22.2661 18.3007 22.115 18.0597C21.9746 17.8354 23.3678 14.6506 24.2814 13.1076C24.7672 12.2874 25.744 11.0051 26.4524 10.2582C27.6449 9.0009 29.5003 7.70641 30.1166 7.70187C30.3199 7.70042 30.3786 8.97382 30.3786 13.3849ZM35.8071 8.69496C37.8001 10.0196 39.8815 12.8805 41.2932 16.2362C41.7021 17.2082 41.8951 17.9222 41.7796 18.0361C41.5248 18.2875 38.0864 18.8274 35.6704 18.9957L33.7318 19.1307V13.4014V7.6721L34.2034 7.80729C34.4628 7.88171 35.1844 8.2811 35.8071 8.69496ZM21.9934 10.2871C21.1845 11.4468 19.651 14.4708 19.1381 15.9172C18.9267 16.5142 18.6347 17.0025 18.4897 17.0025C17.9213 17.0025 14.4082 15.48 14.2929 15.1835C14.0697 14.6099 17.664 11.7447 20.5603 10.1875C21.4072 9.73229 22.2227 9.35833 22.3723 9.35667C22.5383 9.35481 22.3906 9.71761 21.9934 10.2871ZM43.4223 10.2189C44.3494 10.6946 45.6842 11.5022 46.3884 12.0135C47.7477 13.0001 49.8693 14.902 49.8693 15.1337C49.8693 15.3834 46.1258 17.0025 45.5482 17.0025C45.4055 17.0025 45.0859 16.4675 44.838 15.8138C44.2625 14.2965 42.8757 11.5762 42.0927 10.4287C41.1634 9.06685 41.1741 9.06519 43.4223 10.2189ZM13.147 18.625C13.8063 18.949 15.0533 19.4786 15.9178 19.8019C16.7823 20.1252 17.5223 20.4119 17.5623 20.4388C17.6024 20.4659 17.4424 21.5876 17.2069 22.9315C16.9713 24.2752 16.7223 26.0259 16.6536 26.8218C16.5851 27.6176 16.4767 28.7106 16.4132 29.2508L16.2975 30.2327H11.9161H7.53469V29.4192C7.53469 28.4361 7.97857 26.305 8.59221 24.3411C9.24819 22.2425 11.4223 18.0361 11.8513 18.0361C11.9044 18.0361 12.4874 18.3011 13.147 18.625ZM53.1942 19.4354C54.8312 22.1999 56.1224 25.9872 56.4705 29.044L56.6059 30.2327H52.1164H47.627L47.4918 28.1977C47.4174 27.0785 47.1555 25.0086 46.9096 23.5982C46.6638 22.1877 46.4511 20.9132 46.437 20.7661C46.4224 20.6145 47.2299 20.1604 48.2974 19.7194C49.3349 19.2911 50.5609 18.7412 51.022 18.4975C51.483 18.2538 51.9741 18.0504 52.113 18.0452C52.252 18.0402 52.7386 18.6658 53.1942 19.4354ZM25.4535 22.1418C26.3757 22.2567 27.8612 22.4112 28.7544 22.485L30.3786 22.6193V26.4259V30.2327H25.1073H19.836L19.9691 28.0877C20.0907 26.1276 20.7672 22.0056 21.0384 21.5729C21.1004 21.4739 21.7419 21.5144 22.4639 21.6628C23.1861 21.8112 24.5314 22.0269 25.4535 22.1418ZM43.5514 24.2377C43.789 25.659 44.0466 27.5893 44.1241 28.5272L44.2648 30.2327H38.9983H33.7318V26.4259V22.6193L35.3561 22.4816C37.1827 22.3268 41.0014 21.81 42.1149 21.5667C42.5184 21.4786 42.9094 21.4621 42.9838 21.5301C43.0584 21.5981 43.3137 22.8165 43.5514 24.2377ZM16.4149 34.7289C16.4794 35.269 16.5922 36.4085 16.6653 37.2612C16.7387 38.1139 16.9734 39.781 17.187 40.9655C17.4005 42.1502 17.5334 43.1863 17.4821 43.2681C17.4307 43.35 17.1381 43.479 16.832 43.5549C16.5258 43.6307 15.2534 44.1655 14.0045 44.7433C12.155 45.5991 11.6766 45.7469 11.4246 45.5404C10.9793 45.176 9.09688 41.3227 8.59158 39.7419C7.99785 37.8841 7.54265 35.6726 7.53825 34.6255L7.53469 33.7469H11.9161H16.2975L16.4149 34.7289ZM30.3786 37.4373V41.128L28.44 41.2634C27.3737 41.3378 25.5583 41.5511 24.4057 41.7374C23.253 41.9236 21.9802 42.0857 21.577 42.0977L20.8443 42.1192L20.4878 40.1553C20.2917 39.0752 20.0649 37.1913 19.984 35.9692L19.8367 33.7469H25.1077H30.3786V37.4373ZM44.1128 35.5558C43.9617 37.4082 43.2318 42.0166 43.0631 42.1831C43.0115 42.2341 41.763 42.0778 40.2891 41.8358C38.8151 41.5939 36.7368 41.3355 35.6704 41.2615L33.7318 41.1271V37.4369V33.7469H38.996H44.2604L44.1128 35.5558ZM56.4682 34.9356C56.2515 36.804 55.5849 39.4285 54.8878 41.1559C54.2117 42.8311 52.6179 45.7368 52.375 45.7368C52.2956 45.7368 51.3458 45.3263 50.2641 44.8246C49.1825 44.3226 47.8965 43.7963 47.4067 43.6547C46.419 43.3694 46.336 43.1061 46.7275 41.499C47.0184 40.305 47.5639 35.8935 47.5639 34.7351V33.7469H52.0849H56.6059L56.4682 34.9356ZM30.3296 50.4424C30.3929 57.0918 30.4819 56.8173 28.6358 55.6626C26.4323 54.2841 24.6006 51.9184 22.9981 48.3818C22.4467 47.1646 21.9955 46.0345 21.9955 45.8706C21.9955 45.6665 22.4119 45.5009 23.3161 45.3457C25.5732 44.9579 29.2572 44.5356 29.9594 44.5837C30.2296 44.6023 30.2816 45.4276 30.3296 50.4424ZM39.154 45.1369C40.58 45.3569 41.8244 45.5843 41.9194 45.6421C42.3373 45.8968 40.519 49.8016 38.9105 52.1043C37.4418 54.2066 34.979 56.2796 33.9498 56.2796C33.8039 56.2796 33.7318 54.3358 33.7318 50.4118V44.544L35.1465 44.6406C35.9246 44.6937 37.7278 44.917 39.154 45.1369ZM21.236 52.515C21.791 53.4486 22.3302 54.2643 22.4346 54.328C22.5389 54.3914 22.6242 54.5355 22.6242 54.6478C22.6242 54.7602 21.7662 54.4148 20.7173 53.8806C18.7806 52.8939 15.7614 50.7231 14.4778 49.3943L13.7715 48.6632L14.8908 48.1036C15.5066 47.7958 16.5786 47.3333 17.2729 47.076L18.5354 46.6077L19.3812 48.7128C19.8467 49.8706 20.6813 51.5817 21.236 52.515ZM47.5639 47.3858C48.1979 47.6337 49.0308 48.0277 49.4149 48.2611L50.1132 48.6857L49.1005 49.7162C47.7222 51.1188 45.3694 52.8245 43.3053 53.9176C42.3624 54.4171 41.5266 54.8272 41.448 54.8291C41.3692 54.8309 41.8006 54.0541 42.406 53.1027C43.3043 51.6914 44.6479 48.8502 45.3263 46.9277C45.4254 46.6474 45.5585 46.6086 45.9322 46.7516C46.1956 46.8525 46.93 47.1378 47.5639 47.3858Z" fill="black" fill-opacity="0.6"/>
</svg>
